<mxfile host="app.diagrams.net" modified="2025-01-09T06:52:52.617Z" agent="Mozilla/5.0 (Macintosh; Intel Mac OS X 10_15_7) AppleWebKit/537.36 (KHTML, like Gecko) Chrome/131.0.0.0 Safari/537.36" version="24.0.1" etag="z7qgekfr6K_dXzMFkcGa" type="github">
  <diagram name="第 1 页" id="oGf9vIqgi9FngTH0G101">
    <mxGraphModel>
      <root>
        <mxCell id="0" />
        <mxCell id="1" parent="0" />
      </root>
    </mxGraphModel>
  </diagram>
</mxfile>
